<svg width="250" height="250" viewBox="0 0 250 250" fill="none" xmlns="http://www.w3.org/2000/svg">
<path d="M242.5 153.125L153.125 242.5C150.625 245 147.812 246.875 144.688 248.125C141.562 249.375 138.438 250 135.312 250C132.188 250 129.062 249.375 125.938 248.125C122.812 246.875 120 245 117.5 242.5L7.1875 132.188C4.89583 129.896 3.125 127.24 1.875 124.219C0.625 121.198 0 118.021 0 114.688V25C0 18.125 2.44792 12.2396 7.34375 7.34375C12.2396 2.44792 18.125 0 25 0H114.688C118.021 0 121.25 0.677083 124.375 2.03125C127.5 3.38542 130.208 5.20833 132.5 7.5L242.5 117.812C245 120.312 246.823 123.125 247.969 126.25C249.115 129.375 249.688 132.5 249.688 135.625C249.688 138.75 249.115 141.823 247.969 144.844C246.823 147.865 245 150.625 242.5 153.125ZM56.25 75C61.4583 75 65.8854 73.1771 69.5312 69.5312C73.1771 65.8854 75 61.4583 75 56.25C75 51.0417 73.1771 46.6146 69.5312 42.9688C65.8854 39.3229 61.4583 37.5 56.25 37.5C51.0417 37.5 46.6146 39.3229 42.9688 42.9688C39.3229 46.6146 37.5 51.0417 37.5 56.25C37.5 61.4583 39.3229 65.8854 42.9688 69.5312C46.6146 73.1771 51.0417 75 56.25 75ZM137.5 193.75L181.25 150C183.542 147.708 185.365 145 186.719 141.875C188.073 138.75 188.75 135.417 188.75 131.875C188.75 124.792 186.25 118.75 181.25 113.75C176.25 108.75 170.208 106.25 163.125 106.25C159.167 106.25 155.26 107.396 151.406 109.688C147.552 111.979 142.917 115.833 137.5 121.25C131.25 115.417 126.354 111.458 122.812 109.375C119.271 107.292 115.625 106.25 111.875 106.25C104.792 106.25 98.75 108.75 93.75 113.75C88.75 118.75 86.25 124.792 86.25 131.875C86.25 135.417 86.9271 138.75 88.2812 141.875C89.6354 145 91.4583 147.708 93.75 150L137.5 193.75Z" fill="#191C22"/>
</svg>
