<svg width="24" height="25" viewBox="0 0 24 25" fill="none" xmlns="http://www.w3.org/2000/svg">
<path d="M17.5 25V21.25H13.75V18.75H17.5V15H20V18.75H23.75V21.25H20V25H17.5ZM2.5 22.5C1.8125 22.5 1.22396 22.2552 0.734375 21.7656C0.244792 21.276 0 20.6875 0 20V5C0 4.3125 0.244792 3.72396 0.734375 3.23438C1.22396 2.74479 1.8125 2.5 2.5 2.5H3.75V0H6.25V2.5H13.75V0H16.25V2.5H17.5C18.1875 2.5 18.776 2.74479 19.2656 3.23438C19.7552 3.72396 20 4.3125 20 5V12.625C19.5833 12.5625 19.1667 12.5312 18.75 12.5312C18.3333 12.5312 17.9167 12.5625 17.5 12.625V10H2.5V20H11.25C11.25 20.4167 11.2812 20.8333 11.3438 21.25C11.4062 21.6667 11.5208 22.0833 11.6875 22.5H2.5ZM2.5 7.5H17.5V5H2.5V7.5ZM2.5 7.5V5V7.5Z" fill="#8A5100"/>
</svg>
