<svg width="25" height="25" viewBox="0 0 25 25" fill="none" xmlns="http://www.w3.org/2000/svg">
<path d="M24.25 15.3125L15.3125 24.25C15.0625 24.5 14.7812 24.6875 14.4688 24.8125C14.1562 24.9375 13.8438 25 13.5312 25C13.2188 25 12.9062 24.9375 12.5938 24.8125C12.2812 24.6875 12 24.5 11.75 24.25L0.71875 13.2188C0.489583 12.9896 0.3125 12.724 0.1875 12.4219C0.0625 12.1198 0 11.8021 0 11.4688V2.5C0 1.8125 0.244792 1.22396 0.734375 0.734375C1.22396 0.244792 1.8125 0 2.5 0H11.4688C11.8021 0 12.125 0.0677083 12.4375 0.203125C12.75 0.338542 13.0208 0.520833 13.25 0.75L24.25 11.7812C24.5 12.0312 24.6823 12.3125 24.7969 12.625C24.9115 12.9375 24.9688 13.25 24.9688 13.5625C24.9688 13.875 24.9115 14.1823 24.7969 14.4844C24.6823 14.7865 24.5 15.0625 24.25 15.3125ZM13.5312 22.5L22.4688 13.5625L11.4375 2.5H2.5V11.4375L13.5312 22.5ZM5.625 7.5C6.14583 7.5 6.58854 7.31771 6.95312 6.95312C7.31771 6.58854 7.5 6.14583 7.5 5.625C7.5 5.10417 7.31771 4.66146 6.95312 4.29688C6.58854 3.93229 6.14583 3.75 5.625 3.75C5.10417 3.75 4.66146 3.93229 4.29688 4.29688C3.93229 4.66146 3.75 5.10417 3.75 5.625C3.75 6.14583 3.93229 6.58854 4.29688 6.95312C4.66146 7.31771 5.10417 7.5 5.625 7.5Z" fill="#005CBD"/>
</svg>
